<svg width="3251" height="2513" viewBox="0 0 3251 2513" fill="none" xmlns="http://www.w3.org/2000/svg">
<path d="M523.297 1753.02C523.297 1748.23 522.545 1744 521.041 1740.33C519.631 1736.58 517.094 1733.19 513.428 1730.19C509.857 1727.18 504.876 1724.32 498.485 1721.59C492.188 1718.87 484.199 1716.09 474.518 1713.28C464.368 1710.27 455.204 1706.93 447.028 1703.27C438.851 1699.51 431.849 1695.24 426.022 1690.45C420.195 1685.65 415.731 1680.16 412.629 1673.96C409.528 1667.76 407.977 1660.66 407.977 1652.68C407.977 1644.69 409.622 1637.32 412.911 1630.55C416.201 1623.79 420.9 1617.91 427.009 1612.94C433.212 1607.86 440.59 1603.92 449.142 1601.1C457.695 1598.28 467.235 1596.87 477.761 1596.87C493.174 1596.87 506.238 1599.83 516.953 1605.75C527.761 1611.57 535.985 1619.23 541.624 1628.72C547.263 1638.11 550.082 1648.17 550.082 1658.88H523.015C523.015 1651.17 521.37 1644.36 518.08 1638.44C514.791 1632.43 509.81 1627.73 503.137 1624.35C496.464 1620.87 488.005 1619.14 477.761 1619.14C468.08 1619.14 460.092 1620.59 453.795 1623.5C447.498 1626.42 442.798 1630.36 439.697 1635.34C436.689 1640.32 435.186 1646.01 435.186 1652.4C435.186 1656.72 436.079 1660.66 437.864 1664.23C439.744 1667.71 442.611 1670.95 446.464 1673.96C450.411 1676.96 455.392 1679.74 461.408 1682.27C467.517 1684.81 474.8 1687.25 483.259 1689.6C494.913 1692.89 504.97 1696.55 513.428 1700.59C521.887 1704.63 528.842 1709.19 534.293 1714.26C539.838 1719.24 543.926 1724.93 546.558 1731.31C549.284 1737.61 550.646 1744.75 550.646 1752.74C550.646 1761.1 548.955 1768.66 545.571 1775.43C542.188 1782.19 537.347 1787.97 531.05 1792.76C524.753 1797.55 517.188 1801.26 508.353 1803.89C499.612 1806.43 489.838 1807.7 479.03 1807.7C469.537 1807.7 460.186 1806.38 450.975 1803.75C441.859 1801.12 433.541 1797.18 426.022 1791.91C418.597 1786.65 412.629 1780.17 408.118 1772.47C403.701 1764.67 401.492 1755.65 401.492 1745.41H428.56C428.56 1752.45 429.923 1758.51 432.648 1763.59C435.374 1768.57 439.086 1772.7 443.785 1775.99C448.579 1779.28 453.983 1781.72 459.998 1783.32C466.107 1784.82 472.451 1785.57 479.03 1785.57C488.522 1785.57 496.558 1784.26 503.137 1781.63C509.716 1779 514.697 1775.24 518.08 1770.35C521.558 1765.47 523.297 1759.69 523.297 1753.02Z" fill="url(#paint0_linear_76_909)"/>
<path d="M747.789 1599.69V1804.88H721.004V1599.69H747.789ZM813.767 1599.69V1621.95H655.167V1599.69H813.767Z" fill="url(#paint1_linear_76_909)"/>
<path d="M930.835 1599.69H998.786C1014.2 1599.69 1027.22 1602.04 1037.84 1606.73C1048.55 1611.43 1056.68 1618.38 1062.23 1627.59C1067.86 1636.71 1070.68 1647.93 1070.68 1661.27C1070.68 1670.67 1068.76 1679.27 1064.9 1687.06C1061.14 1694.77 1055.69 1701.34 1048.55 1706.79C1041.5 1712.15 1033.04 1716.14 1023.17 1718.77L1015.56 1721.73H951.699L951.417 1699.61H999.632C1009.41 1699.61 1017.54 1697.91 1024.02 1694.53C1030.51 1691.06 1035.39 1686.41 1038.68 1680.58C1041.97 1674.76 1043.62 1668.32 1043.62 1661.27C1043.62 1653.38 1042.07 1646.48 1038.96 1640.56C1035.86 1634.64 1030.98 1630.08 1024.3 1626.89C1017.72 1623.6 1009.22 1621.95 998.786 1621.95H958.043V1804.88H930.835V1599.69ZM1050.81 1804.88L1000.9 1711.87L1029.24 1711.73L1079.85 1803.19V1804.88H1050.81Z" fill="url(#paint2_linear_76_909)"/>
<path d="M1333.1 1782.75V1804.88H1194.1V1782.75H1333.1ZM1328.59 1619.42L1200.58 1804.88H1183.8V1784.59L1311.67 1599.69H1328.59V1619.42ZM1317.03 1599.69V1621.95H1185.64V1599.69H1317.03Z" fill="url(#paint3_linear_76_909)"/>
<path d="M1585.51 1782.75V1804.88H1476.81V1782.75H1585.51ZM1482.31 1599.69V1804.88H1455.1V1599.69H1482.31ZM1571.13 1687.91V1710.03H1476.81V1687.91H1571.13ZM1584.1 1599.69V1621.95H1476.81V1599.69H1584.1Z" fill="url(#paint4_linear_76_909)"/>
<path d="M1830.3 1782.75V1804.88H1727.67V1782.75H1830.3ZM1733.03 1599.69V1804.88H1705.82V1599.69H1733.03Z" fill="url(#paint5_linear_76_909)"/>
<path d="M2062.69 1739.63H2089.75C2088.34 1752.59 2084.63 1764.2 2078.62 1774.44C2072.6 1784.68 2064.1 1792.81 2053.1 1798.82C2042.1 1804.74 2028.38 1807.7 2011.94 1807.7C1999.9 1807.7 1988.96 1805.44 1979.09 1800.93C1969.31 1796.42 1960.9 1790.03 1953.85 1781.77C1946.8 1773.41 1941.35 1763.4 1937.5 1751.75C1933.74 1740.01 1931.86 1726.95 1931.86 1712.57V1692.14C1931.86 1677.76 1933.74 1664.75 1937.5 1653.1C1941.35 1641.36 1946.85 1631.3 1953.99 1622.94C1961.23 1614.58 1969.92 1608.14 1980.07 1603.63C1990.22 1599.12 2001.64 1596.87 2014.33 1596.87C2029.84 1596.87 2042.95 1599.78 2053.66 1605.61C2064.38 1611.43 2072.7 1619.51 2078.62 1629.85C2084.63 1640.09 2088.34 1651.97 2089.75 1665.5H2062.69C2061.37 1655.92 2058.93 1647.7 2055.36 1640.84C2051.78 1633.89 2046.71 1628.53 2040.13 1624.77C2033.55 1621.02 2024.95 1619.14 2014.33 1619.14C2005.22 1619.14 1997.18 1620.87 1990.22 1624.35C1983.36 1627.83 1977.58 1632.76 1972.88 1639.15C1968.28 1645.54 1964.8 1653.19 1962.45 1662.12C1960.1 1671.04 1958.93 1680.96 1958.93 1691.85V1712.57C1958.93 1722.62 1959.96 1732.07 1962.03 1740.9C1964.19 1749.73 1967.43 1757.48 1971.76 1764.15C1976.08 1770.82 1981.58 1776.08 1988.25 1779.93C1994.92 1783.69 2002.82 1785.57 2011.94 1785.57C2023.5 1785.57 2032.71 1783.74 2039.57 1780.08C2046.43 1776.41 2051.6 1771.15 2055.07 1764.29C2058.65 1757.43 2061.18 1749.21 2062.69 1739.63Z" fill="url(#paint6_linear_76_909)"/>
<path d="M2351.18 1782.75V1804.88H2212.18V1782.75H2351.18ZM2346.67 1619.42L2218.66 1804.88H2201.89V1784.59L2329.75 1599.69H2346.67V1619.42ZM2335.11 1599.69V1621.95H2203.72V1599.69H2335.11Z" fill="url(#paint7_linear_76_909)"/>
<path d="M2482.63 1599.69L2535.92 1702.71L2589.35 1599.69H2620.23L2549.45 1728.21V1804.88H2522.25V1728.21L2451.47 1599.69H2482.63Z" fill="url(#paint8_linear_76_909)"/>
<path d="M2760.41 1599.69V1804.88H2733.2V1599.69H2760.41ZM2884.33 1599.69L2799.04 1695.38L2751.11 1745.13L2746.6 1716.09L2782.69 1676.35L2851.63 1599.69H2884.33ZM2858.11 1804.88L2782.12 1704.82L2798.34 1683.26L2890.54 1804.88H2858.11Z" fill="url(#paint9_linear_76_909)"/>
<path d="M1 1379.91L52.277 1354.98L68.2145 1364.68C68.2145 1392.84 75.6058 1411.32 90.3884 1420.09C94.546 1422.86 98.7036 1424.25 102.861 1424.25C113.948 1424.25 124.804 1415.93 135.429 1399.31C163.146 1355.9 177.005 1273.01 177.005 1150.63C177.005 1081.83 174.233 1016.02 168.69 953.217C163.146 954.141 152.983 954.603 138.201 954.603C123.88 954.603 108.174 952.525 91.0813 948.368L83.459 930.359L101.475 870.787C121.801 886.488 149.75 894.339 185.32 894.339C221.353 894.339 258.54 888.105 296.882 875.636C298.73 875.636 299.654 879.561 299.654 887.412C299.654 895.262 296.189 902.189 289.26 908.193C270.782 919.276 255.999 927.126 244.912 931.744C236.135 1139.09 222.508 1275.78 204.029 1341.82C188.785 1396.77 162.915 1436.48 126.421 1460.96C108.405 1472.97 92.4672 1478.97 78.6085 1478.97C65.2118 1478.97 53.2009 1475.74 42.576 1469.27C18.0923 1454.03 4.23369 1424.25 1 1379.91Z" fill="url(#paint10_linear_76_909)"/>
<path d="M657.527 1074.44L636.739 1122.23C609.946 1127.31 584.307 1129.85 559.823 1129.85C535.34 1129.85 514.09 1129.16 496.074 1127.78C495.612 1134.24 495.381 1143.48 495.381 1155.48C495.381 1200.74 501.848 1238.14 514.783 1267.7C528.179 1296.79 548.044 1311.34 574.375 1311.34C601.168 1311.34 622.649 1301.64 638.818 1282.24C654.986 1262.39 669.307 1230.52 681.78 1186.65C682.703 1182.96 684.32 1181.11 686.63 1181.11C693.097 1181.11 700.258 1184.34 708.111 1190.81C686.861 1297.95 638.587 1351.51 563.288 1351.51C483.37 1351.51 442.025 1274.86 439.253 1121.54L425.394 1118.77C421.237 1117.38 417.079 1112.77 412.922 1104.92C409.226 1096.6 407.147 1090.14 406.685 1085.52L410.15 1081.36C422.623 1083.21 432.555 1084.37 439.946 1084.83C442.256 1013.71 446.413 960.606 452.419 925.51L435.788 921.354C431.631 918.583 428.166 914.196 425.394 908.193C423.085 901.727 421.93 897.109 421.93 894.339C421.93 891.568 422.392 890.183 423.316 890.183L472.514 894.339L523.098 859.704L541.114 870.787L532.799 895.031C603.016 894.108 660.53 882.332 705.339 859.704L717.119 877.714L694.252 937.285C661.916 941.442 631.195 943.52 602.092 943.52C572.989 943.52 546.427 941.903 522.405 938.671C511.318 985.774 503.465 1035.19 498.845 1086.91H514.783C564.674 1086.91 610.176 1078.83 651.291 1062.66L657.527 1074.44Z" fill="url(#paint11_linear_76_909)"/>
<path d="M839.763 1165.87C831.91 1158.48 827.983 1149.25 827.983 1138.17C827.983 1134.47 828.676 1132.62 830.062 1132.62C839.763 1134.47 854.083 1135.39 873.024 1135.39H885.496C882.725 1016.71 864.477 937.516 830.755 897.802L863.323 851.392C899.355 874.482 948.784 898.957 1011.61 924.817C1031.94 933.129 1051.34 942.365 1069.82 952.525C1107.23 973.305 1125.94 1000.55 1125.94 1034.26C1125.94 1054.58 1119.25 1074.21 1105.85 1093.14C1092.91 1112.07 1071.9 1127.78 1042.79 1140.24C1082.52 1227.98 1120.17 1295.18 1155.74 1341.82V1342.51C1155.74 1347.59 1148.12 1350.13 1132.87 1350.13C1129.18 1350.13 1126.41 1349.9 1124.56 1349.44C1092.68 1318.03 1048.34 1253.61 991.515 1156.18C974.423 1159.87 953.635 1162.87 929.151 1165.18C927.303 1194.74 920.836 1253.61 909.749 1341.82C902.82 1348.74 895.428 1352.21 887.575 1352.21C880.184 1352.21 876.488 1351.51 876.488 1350.13C882.956 1288.71 886.189 1227.98 886.189 1167.95V1166.57H882.725C863.323 1166.57 849.002 1166.33 839.763 1165.87ZM920.836 928.973C928.689 972.844 932.616 1012.56 932.616 1048.12C932.616 1083.67 931.923 1111.61 930.537 1131.93C971.651 1126.39 1002.83 1115.31 1024.08 1098.68C1045.33 1081.6 1055.96 1062.2 1055.96 1040.5C1055.96 1021.1 1049.49 1005.17 1036.56 992.701C1029.63 985.774 1023.16 980.001 1017.15 975.383C1011.61 970.765 1002.14 965.224 988.743 958.759C975.347 952.294 964.953 947.676 957.561 944.905C950.632 941.672 938.39 936.362 920.836 928.973Z" fill="url(#paint12_linear_76_909)"/>
<path d="M1496.19 1074.44L1475.4 1122.23C1448.61 1127.31 1422.97 1129.85 1398.49 1129.85C1374.01 1129.85 1352.76 1129.16 1334.74 1127.78C1334.28 1134.24 1334.05 1143.48 1334.05 1155.48C1334.05 1200.74 1340.51 1238.14 1353.45 1267.7C1366.84 1296.79 1386.71 1311.34 1413.04 1311.34C1439.83 1311.34 1461.31 1301.64 1477.48 1282.24C1493.65 1262.39 1507.97 1230.52 1520.44 1186.65C1521.37 1182.96 1522.99 1181.11 1525.3 1181.11C1531.76 1181.11 1538.92 1184.34 1546.78 1190.81C1525.53 1297.95 1477.25 1351.51 1401.95 1351.51C1322.04 1351.51 1280.69 1274.86 1277.92 1121.54L1264.06 1118.77C1259.9 1117.38 1255.74 1112.77 1251.59 1104.92C1247.89 1096.6 1245.81 1090.14 1245.35 1085.52L1248.82 1081.36C1261.29 1083.21 1271.22 1084.37 1278.61 1084.83C1280.92 1013.71 1285.08 960.606 1291.08 925.51L1274.45 921.354C1270.3 918.583 1266.83 914.196 1264.06 908.193C1261.75 901.727 1260.6 897.109 1260.6 894.339C1260.6 891.568 1261.06 890.183 1261.98 890.183L1311.18 894.339L1361.76 859.704L1379.78 870.787L1371.46 895.031C1441.68 894.108 1499.19 882.332 1544 859.704L1555.78 877.714L1532.92 937.285C1500.58 941.442 1469.86 943.52 1440.76 943.52C1411.65 943.52 1385.09 941.903 1361.07 938.671C1349.98 985.774 1342.13 1035.19 1337.51 1086.91H1353.45C1403.34 1086.91 1448.84 1078.83 1489.96 1062.66L1496.19 1074.44Z" fill="url(#paint13_linear_76_909)"/>
<path d="M2099.73 1350.13C2099.73 1351.51 2097.88 1352.21 2094.19 1352.21C2082.18 1352.21 2073.17 1348.74 2067.16 1341.82C2043.14 1220.36 2031.13 1116.23 2031.13 1029.41C2031.13 1006.79 2031.82 984.388 2033.21 962.222C1980.09 1085.52 1943.36 1201.66 1923.03 1310.65L1931.35 1341.82L1916.1 1352.9L1850.28 1324.5C1838.26 1214.13 1811.24 1091.99 1769.2 958.066C1765.04 1025.03 1758.58 1095.91 1749.8 1170.72C1741.02 1245.07 1732.02 1299.79 1722.78 1334.89C1719.08 1338.58 1713.54 1341.59 1706.15 1343.89C1698.75 1346.67 1692.75 1348.05 1688.13 1348.05C1683.51 1348.05 1681.2 1347.13 1681.2 1345.28L1686.05 1322.42C1689.28 1307.18 1692.75 1280.86 1696.44 1243.45C1700.14 1206.05 1701.99 1167.26 1701.99 1127.08C1701.99 1049.96 1697.14 980.463 1687.44 918.583L1682.59 888.105L1753.96 859.704L1771.97 870.787C1814.47 966.84 1854.66 1077.44 1892.54 1202.59C1923.96 1118.08 1974.31 1008.17 2043.6 872.865C2044.07 871.942 2044.3 871.249 2044.3 870.787L2062.31 859.704L2121.21 888.105C2099.96 942.596 2089.34 1026.41 2089.34 1139.55C2089.34 1223.6 2092.8 1293.79 2099.73 1350.13Z" fill="url(#paint14_linear_76_909)"/>
<path d="M2303.97 1340.43C2301.2 1343.2 2296.11 1345.74 2288.72 1348.05C2281.79 1350.36 2276.25 1351.51 2272.09 1351.51C2268.4 1351.51 2266.55 1350.59 2266.55 1348.74C2275.33 1289.17 2279.72 1228.22 2279.72 1165.87C2279.72 1055.04 2273.02 957.143 2259.62 872.173L2277.64 859.704L2340 891.568C2337.69 965.917 2333.3 1048.58 2326.83 1139.55C2320.37 1230.06 2312.75 1297.02 2303.97 1340.43Z" fill="url(#paint15_linear_76_909)"/>
<path d="M2697.38 872.865C2695.07 897.34 2693.91 923.201 2693.91 950.447C2693.91 1062.66 2714.7 1195.89 2756.27 1350.13C2754.89 1351.05 2753.04 1351.74 2750.73 1352.21C2738.72 1352.21 2729.71 1348.74 2723.71 1341.82C2708 1308.57 2690.91 1259.62 2672.43 1194.97C2641.02 1200.05 2611.68 1202.59 2584.43 1202.59C2557.63 1202.59 2538.92 1202.12 2528.3 1201.2C2506.59 1246.46 2482.34 1293.33 2455.54 1341.82C2447.23 1348.74 2438.68 1352.21 2429.9 1352.21C2421.13 1352.21 2416.74 1351.51 2416.74 1350.13C2434.29 1315.49 2457.39 1264 2486.03 1195.66C2480.49 1194.74 2471.71 1192.89 2459.7 1190.12C2452.77 1182.73 2449.31 1172.57 2449.31 1159.64C2449.31 1156.41 2450 1154.79 2451.38 1154.79C2452.77 1154.79 2455.54 1155.48 2459.7 1156.87C2469.4 1159.64 2482.34 1161.95 2498.5 1163.79C2542.85 1055.27 2573.57 967.302 2590.66 899.88L2666.89 859.704C2679.82 859.704 2689.98 864.091 2697.38 872.865ZM2544.93 1165.87C2588.35 1164.95 2626.93 1159.64 2660.65 1149.94C2641.71 1078.36 2629.7 1017.41 2624.62 967.071C2598.29 1039.57 2571.72 1105.84 2544.93 1165.87Z" fill="url(#paint16_linear_76_909)"/>
<path d="M2923.93 1153.4L2923.24 1137.47C2912.15 1136.09 2898.29 1133.32 2881.66 1129.16C2874.73 1122.7 2871.27 1113.23 2871.27 1100.76C2871.27 1096.6 2871.96 1094.53 2873.35 1094.53C2875.2 1094.53 2878.2 1094.99 2882.36 1095.91C2892.06 1099.14 2905.45 1101.68 2922.55 1103.53C2920.7 1068.43 2916.77 1033.11 2910.77 997.549C2905.22 961.53 2900.14 934.284 2895.52 915.812L2888.59 888.105L2948.88 859.704L2966.89 870.787C2973.82 911.887 2977.29 952.525 2977.29 992.701C2977.29 1032.88 2976.13 1070.28 2973.82 1104.92C3036.19 1102.15 3087.93 1091.52 3129.04 1073.05C3128.58 1063.36 3128.35 1041.42 3128.35 1007.25C3128.35 972.613 3132.74 927.126 3141.51 870.787L3159.53 859.704L3218.43 888.105C3197.18 942.596 3186.55 1026.41 3186.55 1139.55C3186.55 1223.6 3190.02 1293.79 3196.95 1350.13C3196.95 1351.51 3195.1 1352.21 3191.4 1352.21C3179.39 1352.21 3170.39 1348.74 3164.38 1341.82C3147.75 1257.31 3137.12 1185.5 3132.5 1126.39C3083.54 1136.55 3038.5 1141.63 2997.38 1141.63H2971.05C2965.97 1195.2 2956.96 1260.77 2944.03 1338.35C2940.79 1342.05 2935.48 1345.05 2928.09 1347.36C2921.16 1350.13 2915.15 1351.51 2910.07 1351.51C2905.45 1351.51 2903.14 1350.36 2903.14 1348.05L2905.22 1340.43C2917.7 1294.71 2923.93 1232.37 2923.93 1153.4Z" fill="url(#paint17_linear_76_909)"/>
<path d="M1611.5 1L37.9673 621.534L1611.5 102.017L3250 621.534L1611.5 1Z" fill="url(#paint18_linear_76_909)"/>
<path d="M1611.5 2512L37.9673 1891.47L1611.5 2410.98L3250 1891.47L1611.5 2512Z" fill="url(#paint19_linear_76_909)"/>
<path d="M523.297 1753.02C523.297 1748.23 522.545 1744 521.041 1740.33C519.631 1736.58 517.094 1733.19 513.428 1730.19C509.857 1727.18 504.876 1724.32 498.485 1721.59C492.188 1718.87 484.199 1716.09 474.518 1713.28C464.368 1710.27 455.204 1706.93 447.028 1703.27C438.851 1699.51 431.849 1695.24 426.022 1690.45C420.195 1685.65 415.731 1680.16 412.629 1673.96C409.528 1667.76 407.977 1660.66 407.977 1652.68C407.977 1644.69 409.622 1637.32 412.911 1630.55C416.201 1623.79 420.9 1617.91 427.009 1612.94C433.212 1607.86 440.59 1603.92 449.142 1601.1C457.695 1598.28 467.235 1596.87 477.761 1596.87C493.174 1596.87 506.238 1599.83 516.953 1605.75C527.761 1611.57 535.985 1619.23 541.624 1628.72C547.263 1638.11 550.082 1648.17 550.082 1658.88H523.015C523.015 1651.17 521.37 1644.36 518.08 1638.44C514.791 1632.43 509.81 1627.73 503.137 1624.35C496.464 1620.87 488.005 1619.14 477.761 1619.14C468.08 1619.14 460.092 1620.59 453.795 1623.5C447.498 1626.42 442.798 1630.36 439.697 1635.34C436.689 1640.32 435.186 1646.01 435.186 1652.4C435.186 1656.72 436.079 1660.66 437.864 1664.23C439.744 1667.71 442.611 1670.95 446.464 1673.96C450.411 1676.96 455.392 1679.74 461.408 1682.27C467.517 1684.81 474.8 1687.25 483.259 1689.6C494.913 1692.89 504.97 1696.55 513.428 1700.59C521.887 1704.63 528.842 1709.19 534.293 1714.26C539.838 1719.24 543.926 1724.93 546.558 1731.31C549.284 1737.61 550.646 1744.75 550.646 1752.74C550.646 1761.1 548.955 1768.66 545.571 1775.43C542.188 1782.19 537.347 1787.97 531.05 1792.76C524.753 1797.55 517.188 1801.26 508.353 1803.89C499.612 1806.43 489.838 1807.7 479.03 1807.7C469.537 1807.7 460.186 1806.38 450.975 1803.75C441.859 1801.12 433.541 1797.18 426.022 1791.91C418.597 1786.65 412.629 1780.17 408.118 1772.47C403.701 1764.67 401.492 1755.65 401.492 1745.41H428.56C428.56 1752.45 429.923 1758.51 432.648 1763.59C435.374 1768.57 439.086 1772.7 443.785 1775.99C448.579 1779.28 453.983 1781.72 459.998 1783.32C466.107 1784.82 472.451 1785.57 479.03 1785.57C488.522 1785.57 496.558 1784.26 503.137 1781.63C509.716 1779 514.697 1775.24 518.08 1770.35C521.558 1765.47 523.297 1759.69 523.297 1753.02Z" stroke="url(#paint20_linear_76_909)" stroke-width="0.5"/>
<path d="M747.789 1599.69V1804.88H721.004V1599.69H747.789ZM813.767 1599.69V1621.95H655.167V1599.69H813.767Z" stroke="url(#paint21_linear_76_909)" stroke-width="0.5"/>
<path d="M930.835 1599.69H998.786C1014.2 1599.69 1027.22 1602.04 1037.84 1606.73C1048.55 1611.43 1056.68 1618.38 1062.23 1627.59C1067.86 1636.71 1070.68 1647.93 1070.68 1661.27C1070.68 1670.67 1068.76 1679.27 1064.9 1687.06C1061.14 1694.77 1055.69 1701.34 1048.55 1706.79C1041.5 1712.15 1033.04 1716.14 1023.17 1718.77L1015.56 1721.73H951.699L951.417 1699.61H999.632C1009.41 1699.61 1017.54 1697.91 1024.02 1694.53C1030.51 1691.06 1035.39 1686.41 1038.68 1680.58C1041.97 1674.76 1043.62 1668.32 1043.62 1661.27C1043.62 1653.38 1042.07 1646.48 1038.96 1640.56C1035.86 1634.64 1030.98 1630.08 1024.3 1626.89C1017.72 1623.6 1009.22 1621.95 998.786 1621.95H958.043V1804.88H930.835V1599.69ZM1050.81 1804.88L1000.9 1711.87L1029.24 1711.73L1079.85 1803.19V1804.88H1050.81Z" stroke="url(#paint22_linear_76_909)" stroke-width="0.5"/>
<path d="M1333.1 1782.75V1804.88H1194.1V1782.75H1333.1ZM1328.59 1619.42L1200.58 1804.88H1183.8V1784.59L1311.67 1599.69H1328.59V1619.42ZM1317.03 1599.69V1621.95H1185.64V1599.69H1317.03Z" stroke="url(#paint23_linear_76_909)" stroke-width="0.5"/>
<path d="M1585.51 1782.75V1804.88H1476.81V1782.75H1585.51ZM1482.31 1599.69V1804.88H1455.1V1599.69H1482.31ZM1571.13 1687.91V1710.03H1476.81V1687.91H1571.13ZM1584.1 1599.69V1621.95H1476.81V1599.69H1584.1Z" stroke="url(#paint24_linear_76_909)" stroke-width="0.5"/>
<path d="M1830.3 1782.75V1804.88H1727.67V1782.75H1830.3ZM1733.03 1599.69V1804.88H1705.82V1599.69H1733.03Z" stroke="url(#paint25_linear_76_909)" stroke-width="0.5"/>
<path d="M2062.69 1739.63H2089.75C2088.34 1752.59 2084.63 1764.2 2078.62 1774.44C2072.6 1784.68 2064.1 1792.81 2053.1 1798.82C2042.1 1804.74 2028.38 1807.7 2011.94 1807.7C1999.9 1807.7 1988.96 1805.44 1979.09 1800.93C1969.31 1796.42 1960.9 1790.03 1953.85 1781.77C1946.8 1773.41 1941.35 1763.4 1937.5 1751.75C1933.74 1740.01 1931.86 1726.95 1931.86 1712.57V1692.14C1931.86 1677.76 1933.74 1664.75 1937.5 1653.1C1941.35 1641.36 1946.85 1631.3 1953.99 1622.94C1961.23 1614.58 1969.92 1608.14 1980.07 1603.63C1990.22 1599.12 2001.64 1596.87 2014.33 1596.87C2029.84 1596.87 2042.95 1599.78 2053.66 1605.61C2064.38 1611.43 2072.7 1619.51 2078.62 1629.85C2084.63 1640.09 2088.34 1651.97 2089.75 1665.5H2062.69C2061.37 1655.92 2058.93 1647.7 2055.36 1640.84C2051.78 1633.89 2046.71 1628.53 2040.13 1624.77C2033.55 1621.02 2024.95 1619.14 2014.33 1619.14C2005.22 1619.14 1997.18 1620.87 1990.22 1624.35C1983.36 1627.83 1977.58 1632.76 1972.88 1639.15C1968.28 1645.54 1964.8 1653.19 1962.45 1662.12C1960.1 1671.04 1958.93 1680.96 1958.93 1691.85V1712.57C1958.93 1722.62 1959.96 1732.07 1962.03 1740.9C1964.19 1749.73 1967.43 1757.48 1971.76 1764.15C1976.08 1770.82 1981.58 1776.08 1988.25 1779.93C1994.92 1783.69 2002.82 1785.57 2011.94 1785.57C2023.5 1785.57 2032.71 1783.74 2039.57 1780.08C2046.43 1776.41 2051.6 1771.15 2055.07 1764.29C2058.65 1757.43 2061.18 1749.21 2062.69 1739.63Z" stroke="url(#paint26_linear_76_909)" stroke-width="0.5"/>
<path d="M2351.18 1782.75V1804.88H2212.18V1782.75H2351.18ZM2346.67 1619.42L2218.66 1804.88H2201.89V1784.59L2329.75 1599.69H2346.67V1619.42ZM2335.11 1599.69V1621.95H2203.72V1599.69H2335.11Z" stroke="url(#paint27_linear_76_909)" stroke-width="0.5"/>
<path d="M2482.63 1599.69L2535.92 1702.71L2589.35 1599.69H2620.23L2549.45 1728.21V1804.88H2522.25V1728.21L2451.47 1599.69H2482.63Z" stroke="url(#paint28_linear_76_909)" stroke-width="0.5"/>
<path d="M2760.41 1599.69V1804.88H2733.2V1599.69H2760.41ZM2884.33 1599.69L2799.04 1695.38L2751.11 1745.13L2746.6 1716.09L2782.69 1676.35L2851.63 1599.69H2884.33ZM2858.11 1804.88L2782.12 1704.82L2798.34 1683.26L2890.54 1804.88H2858.11Z" stroke="url(#paint29_linear_76_909)" stroke-width="0.5"/>
<path d="M1 1379.91L52.277 1354.98L68.2145 1364.68C68.2145 1392.84 75.6058 1411.32 90.3884 1420.09C94.546 1422.86 98.7036 1424.25 102.861 1424.25C113.948 1424.25 124.804 1415.93 135.429 1399.31C163.146 1355.9 177.005 1273.01 177.005 1150.63C177.005 1081.83 174.233 1016.02 168.69 953.217C163.146 954.141 152.983 954.603 138.201 954.603C123.88 954.603 108.174 952.525 91.0813 948.368L83.459 930.359L101.475 870.787C121.801 886.488 149.75 894.339 185.32 894.339C221.353 894.339 258.54 888.105 296.882 875.636C298.73 875.636 299.654 879.561 299.654 887.412C299.654 895.262 296.189 902.189 289.26 908.193C270.782 919.276 255.999 927.126 244.912 931.744C236.135 1139.09 222.508 1275.78 204.029 1341.82C188.785 1396.77 162.915 1436.48 126.421 1460.96C108.405 1472.97 92.4672 1478.97 78.6085 1478.97C65.2118 1478.97 53.2009 1475.74 42.576 1469.27C18.0923 1454.03 4.23369 1424.25 1 1379.91Z" stroke="url(#paint30_linear_76_909)" stroke-width="0.5"/>
<path d="M657.527 1074.44L636.739 1122.23C609.946 1127.31 584.307 1129.85 559.823 1129.85C535.34 1129.85 514.09 1129.16 496.074 1127.78C495.612 1134.24 495.381 1143.48 495.381 1155.48C495.381 1200.74 501.848 1238.14 514.783 1267.7C528.179 1296.79 548.044 1311.34 574.375 1311.34C601.168 1311.34 622.649 1301.64 638.818 1282.24C654.986 1262.39 669.307 1230.52 681.78 1186.65C682.703 1182.96 684.32 1181.11 686.63 1181.11C693.097 1181.11 700.258 1184.34 708.111 1190.81C686.861 1297.95 638.587 1351.51 563.288 1351.51C483.37 1351.51 442.025 1274.86 439.253 1121.54L425.394 1118.77C421.237 1117.38 417.079 1112.77 412.922 1104.92C409.226 1096.6 407.147 1090.14 406.685 1085.52L410.15 1081.36C422.623 1083.21 432.555 1084.37 439.946 1084.83C442.256 1013.71 446.413 960.606 452.419 925.51L435.788 921.354C431.631 918.583 428.166 914.196 425.394 908.193C423.085 901.727 421.93 897.109 421.93 894.339C421.93 891.568 422.392 890.183 423.316 890.183L472.514 894.339L523.098 859.704L541.114 870.787L532.799 895.031C603.016 894.108 660.53 882.332 705.339 859.704L717.119 877.714L694.252 937.285C661.916 941.442 631.195 943.52 602.092 943.52C572.989 943.52 546.427 941.903 522.405 938.671C511.318 985.774 503.465 1035.19 498.845 1086.91H514.783C564.674 1086.91 610.176 1078.83 651.291 1062.66L657.527 1074.44Z" stroke="url(#paint31_linear_76_909)" stroke-width="0.5"/>
<path d="M839.763 1165.87C831.91 1158.48 827.983 1149.25 827.983 1138.17C827.983 1134.47 828.676 1132.62 830.062 1132.62C839.763 1134.47 854.083 1135.39 873.024 1135.39H885.496C882.725 1016.71 864.477 937.516 830.755 897.802L863.323 851.392C899.355 874.482 948.784 898.957 1011.61 924.817C1031.94 933.129 1051.34 942.365 1069.82 952.525C1107.23 973.305 1125.94 1000.55 1125.94 1034.26C1125.94 1054.58 1119.25 1074.21 1105.85 1093.14C1092.91 1112.07 1071.9 1127.78 1042.79 1140.24C1082.52 1227.98 1120.17 1295.18 1155.74 1341.82V1342.51C1155.74 1347.59 1148.12 1350.13 1132.87 1350.13C1129.18 1350.13 1126.41 1349.9 1124.56 1349.44C1092.68 1318.03 1048.34 1253.61 991.515 1156.18C974.423 1159.87 953.635 1162.87 929.151 1165.18C927.303 1194.74 920.836 1253.61 909.749 1341.82C902.82 1348.74 895.428 1352.21 887.575 1352.21C880.184 1352.21 876.488 1351.51 876.488 1350.13C882.956 1288.71 886.189 1227.98 886.189 1167.95V1166.57H882.725C863.323 1166.57 849.002 1166.33 839.763 1165.87ZM920.836 928.973C928.689 972.844 932.616 1012.56 932.616 1048.12C932.616 1083.67 931.923 1111.61 930.537 1131.93C971.651 1126.39 1002.83 1115.31 1024.08 1098.68C1045.33 1081.6 1055.96 1062.2 1055.96 1040.5C1055.96 1021.1 1049.49 1005.17 1036.56 992.701C1029.63 985.774 1023.16 980.001 1017.15 975.383C1011.61 970.765 1002.14 965.224 988.743 958.759C975.347 952.294 964.953 947.676 957.561 944.905C950.632 941.672 938.39 936.362 920.836 928.973Z" stroke="url(#paint32_linear_76_909)" stroke-width="0.5"/>
<path d="M1496.19 1074.44L1475.4 1122.23C1448.61 1127.31 1422.97 1129.85 1398.49 1129.85C1374.01 1129.85 1352.76 1129.16 1334.74 1127.78C1334.28 1134.24 1334.05 1143.48 1334.05 1155.48C1334.05 1200.74 1340.51 1238.14 1353.45 1267.7C1366.84 1296.79 1386.71 1311.34 1413.04 1311.34C1439.83 1311.34 1461.31 1301.64 1477.48 1282.24C1493.65 1262.39 1507.97 1230.52 1520.44 1186.65C1521.37 1182.96 1522.99 1181.11 1525.3 1181.11C1531.76 1181.11 1538.92 1184.34 1546.78 1190.81C1525.53 1297.95 1477.25 1351.51 1401.95 1351.51C1322.04 1351.51 1280.69 1274.86 1277.92 1121.54L1264.06 1118.77C1259.9 1117.38 1255.74 1112.77 1251.59 1104.92C1247.89 1096.6 1245.81 1090.14 1245.35 1085.52L1248.82 1081.36C1261.29 1083.21 1271.22 1084.37 1278.61 1084.83C1280.92 1013.71 1285.08 960.606 1291.08 925.51L1274.45 921.354C1270.3 918.583 1266.83 914.196 1264.06 908.193C1261.75 901.727 1260.6 897.109 1260.6 894.339C1260.6 891.568 1261.06 890.183 1261.98 890.183L1311.18 894.339L1361.76 859.704L1379.78 870.787L1371.46 895.031C1441.68 894.108 1499.19 882.332 1544 859.704L1555.78 877.714L1532.92 937.285C1500.58 941.442 1469.86 943.52 1440.76 943.52C1411.65 943.52 1385.09 941.903 1361.07 938.671C1349.98 985.774 1342.13 1035.19 1337.51 1086.91H1353.45C1403.34 1086.91 1448.84 1078.83 1489.96 1062.66L1496.19 1074.44Z" stroke="url(#paint33_linear_76_909)" stroke-width="0.5"/>
<path d="M2099.73 1350.13C2099.73 1351.51 2097.88 1352.21 2094.19 1352.21C2082.18 1352.21 2073.17 1348.74 2067.16 1341.82C2043.14 1220.36 2031.13 1116.23 2031.13 1029.41C2031.13 1006.79 2031.82 984.388 2033.21 962.222C1980.09 1085.52 1943.36 1201.66 1923.03 1310.65L1931.35 1341.82L1916.1 1352.9L1850.28 1324.5C1838.26 1214.13 1811.24 1091.99 1769.2 958.066C1765.04 1025.03 1758.58 1095.91 1749.8 1170.72C1741.02 1245.07 1732.02 1299.79 1722.78 1334.89C1719.08 1338.58 1713.54 1341.59 1706.15 1343.89C1698.75 1346.67 1692.75 1348.05 1688.13 1348.05C1683.51 1348.05 1681.2 1347.13 1681.2 1345.28L1686.05 1322.42C1689.28 1307.18 1692.75 1280.86 1696.44 1243.45C1700.14 1206.05 1701.99 1167.26 1701.99 1127.08C1701.99 1049.96 1697.14 980.463 1687.44 918.583L1682.59 888.105L1753.96 859.704L1771.97 870.787C1814.47 966.84 1854.66 1077.44 1892.54 1202.59C1923.96 1118.08 1974.31 1008.17 2043.6 872.865C2044.07 871.942 2044.3 871.249 2044.3 870.787L2062.31 859.704L2121.21 888.105C2099.96 942.596 2089.34 1026.41 2089.34 1139.55C2089.34 1223.6 2092.8 1293.79 2099.73 1350.13Z" stroke="url(#paint34_linear_76_909)" stroke-width="0.5"/>
<path d="M2303.97 1340.43C2301.2 1343.2 2296.11 1345.74 2288.72 1348.05C2281.79 1350.36 2276.25 1351.51 2272.09 1351.51C2268.4 1351.51 2266.55 1350.59 2266.55 1348.74C2275.33 1289.17 2279.72 1228.22 2279.72 1165.87C2279.72 1055.04 2273.02 957.143 2259.62 872.173L2277.64 859.704L2340 891.568C2337.69 965.917 2333.3 1048.58 2326.83 1139.55C2320.37 1230.06 2312.75 1297.02 2303.97 1340.43Z" stroke="url(#paint35_linear_76_909)" stroke-width="0.5"/>
<path d="M2697.38 872.865C2695.07 897.34 2693.91 923.201 2693.91 950.447C2693.91 1062.66 2714.7 1195.89 2756.27 1350.13C2754.89 1351.05 2753.04 1351.74 2750.73 1352.21C2738.72 1352.21 2729.71 1348.74 2723.71 1341.82C2708 1308.57 2690.91 1259.62 2672.43 1194.97C2641.02 1200.05 2611.68 1202.59 2584.43 1202.59C2557.63 1202.59 2538.92 1202.12 2528.3 1201.2C2506.59 1246.46 2482.34 1293.33 2455.54 1341.82C2447.23 1348.74 2438.68 1352.21 2429.9 1352.21C2421.13 1352.21 2416.74 1351.51 2416.74 1350.13C2434.29 1315.49 2457.39 1264 2486.03 1195.66C2480.49 1194.74 2471.71 1192.89 2459.7 1190.12C2452.77 1182.73 2449.31 1172.57 2449.31 1159.64C2449.31 1156.41 2450 1154.79 2451.38 1154.79C2452.77 1154.79 2455.54 1155.48 2459.7 1156.87C2469.4 1159.64 2482.34 1161.95 2498.5 1163.79C2542.85 1055.27 2573.57 967.302 2590.66 899.88L2666.89 859.704C2679.82 859.704 2689.98 864.091 2697.38 872.865ZM2544.93 1165.87C2588.35 1164.95 2626.93 1159.64 2660.65 1149.94C2641.71 1078.36 2629.7 1017.41 2624.62 967.071C2598.29 1039.57 2571.72 1105.84 2544.93 1165.87Z" stroke="url(#paint36_linear_76_909)" stroke-width="0.5"/>
<path d="M2923.93 1153.4L2923.24 1137.47C2912.15 1136.09 2898.29 1133.32 2881.66 1129.16C2874.73 1122.7 2871.27 1113.23 2871.27 1100.76C2871.27 1096.6 2871.96 1094.53 2873.35 1094.53C2875.2 1094.53 2878.2 1094.99 2882.36 1095.91C2892.06 1099.14 2905.45 1101.68 2922.55 1103.53C2920.7 1068.43 2916.77 1033.11 2910.77 997.549C2905.22 961.53 2900.14 934.284 2895.52 915.812L2888.59 888.105L2948.88 859.704L2966.89 870.787C2973.82 911.887 2977.29 952.525 2977.29 992.701C2977.29 1032.88 2976.13 1070.28 2973.82 1104.92C3036.19 1102.15 3087.93 1091.52 3129.04 1073.05C3128.58 1063.36 3128.35 1041.42 3128.35 1007.25C3128.35 972.613 3132.74 927.126 3141.51 870.787L3159.53 859.704L3218.43 888.105C3197.18 942.596 3186.55 1026.41 3186.55 1139.55C3186.55 1223.6 3190.02 1293.79 3196.95 1350.13C3196.95 1351.51 3195.1 1352.21 3191.4 1352.21C3179.39 1352.21 3170.39 1348.74 3164.38 1341.82C3147.75 1257.31 3137.12 1185.5 3132.5 1126.39C3083.54 1136.55 3038.5 1141.63 2997.38 1141.63H2971.05C2965.97 1195.2 2956.96 1260.77 2944.03 1338.35C2940.79 1342.05 2935.48 1345.05 2928.09 1347.36C2921.16 1350.13 2915.15 1351.51 2910.07 1351.51C2905.45 1351.51 2903.14 1350.36 2903.14 1348.05L2905.22 1340.43C2917.7 1294.71 2923.93 1232.37 2923.93 1153.4Z" stroke="url(#paint37_linear_76_909)" stroke-width="0.5"/>
<path d="M1611.5 1L37.9673 621.534L1611.5 102.017L3250 621.534L1611.5 1Z" stroke="url(#paint38_linear_76_909)" stroke-width="0.5"/>
<path d="M1611.5 2512L37.9673 1891.47L1611.5 2410.98L3250 1891.47L1611.5 2512Z" stroke="url(#paint39_linear_76_909)" stroke-width="0.5"/>
<defs>
<linearGradient id="paint0_linear_76_909" x1="3250" y1="1256.5" x2="1.00008" y2="1256.5" gradientUnits="userSpaceOnUse">
<stop stop-color="#0CF70C"/>
<stop offset="1" stop-color="#AFFA00"/>
</linearGradient>
<linearGradient id="paint1_linear_76_909" x1="3250" y1="1256.5" x2="1.00008" y2="1256.5" gradientUnits="userSpaceOnUse">
<stop stop-color="#0CF70C"/>
<stop offset="1" stop-color="#AFFA00"/>
</linearGradient>
<linearGradient id="paint2_linear_76_909" x1="3250" y1="1256.5" x2="1.00008" y2="1256.5" gradientUnits="userSpaceOnUse">
<stop stop-color="#0CF70C"/>
<stop offset="1" stop-color="#AFFA00"/>
</linearGradient>
<linearGradient id="paint3_linear_76_909" x1="3250" y1="1256.5" x2="1.00008" y2="1256.5" gradientUnits="userSpaceOnUse">
<stop stop-color="#0CF70C"/>
<stop offset="1" stop-color="#AFFA00"/>
</linearGradient>
<linearGradient id="paint4_linear_76_909" x1="3250" y1="1256.5" x2="1.00008" y2="1256.5" gradientUnits="userSpaceOnUse">
<stop stop-color="#0CF70C"/>
<stop offset="1" stop-color="#AFFA00"/>
</linearGradient>
<linearGradient id="paint5_linear_76_909" x1="3250" y1="1256.5" x2="1.00008" y2="1256.5" gradientUnits="userSpaceOnUse">
<stop stop-color="#0CF70C"/>
<stop offset="1" stop-color="#AFFA00"/>
</linearGradient>
<linearGradient id="paint6_linear_76_909" x1="3250" y1="1256.5" x2="1.00008" y2="1256.5" gradientUnits="userSpaceOnUse">
<stop stop-color="#0CF70C"/>
<stop offset="1" stop-color="#AFFA00"/>
</linearGradient>
<linearGradient id="paint7_linear_76_909" x1="3250" y1="1256.5" x2="1.00008" y2="1256.5" gradientUnits="userSpaceOnUse">
<stop stop-color="#0CF70C"/>
<stop offset="1" stop-color="#AFFA00"/>
</linearGradient>
<linearGradient id="paint8_linear_76_909" x1="3250" y1="1256.5" x2="1.00008" y2="1256.5" gradientUnits="userSpaceOnUse">
<stop stop-color="#0CF70C"/>
<stop offset="1" stop-color="#AFFA00"/>
</linearGradient>
<linearGradient id="paint9_linear_76_909" x1="3250" y1="1256.5" x2="1.00008" y2="1256.5" gradientUnits="userSpaceOnUse">
<stop stop-color="#0CF70C"/>
<stop offset="1" stop-color="#AFFA00"/>
</linearGradient>
<linearGradient id="paint10_linear_76_909" x1="3250" y1="1256.5" x2="1.00008" y2="1256.5" gradientUnits="userSpaceOnUse">
<stop stop-color="#0CF70C"/>
<stop offset="1" stop-color="#AFFA00"/>
</linearGradient>
<linearGradient id="paint11_linear_76_909" x1="3250" y1="1256.5" x2="1.00008" y2="1256.5" gradientUnits="userSpaceOnUse">
<stop stop-color="#0CF70C"/>
<stop offset="1" stop-color="#AFFA00"/>
</linearGradient>
<linearGradient id="paint12_linear_76_909" x1="3250" y1="1256.5" x2="1.00008" y2="1256.5" gradientUnits="userSpaceOnUse">
<stop stop-color="#0CF70C"/>
<stop offset="1" stop-color="#AFFA00"/>
</linearGradient>
<linearGradient id="paint13_linear_76_909" x1="3250" y1="1256.5" x2="1.00008" y2="1256.5" gradientUnits="userSpaceOnUse">
<stop stop-color="#0CF70C"/>
<stop offset="1" stop-color="#AFFA00"/>
</linearGradient>
<linearGradient id="paint14_linear_76_909" x1="3250" y1="1256.5" x2="1.00008" y2="1256.5" gradientUnits="userSpaceOnUse">
<stop stop-color="#0CF70C"/>
<stop offset="1" stop-color="#AFFA00"/>
</linearGradient>
<linearGradient id="paint15_linear_76_909" x1="3250" y1="1256.5" x2="1.00008" y2="1256.5" gradientUnits="userSpaceOnUse">
<stop stop-color="#0CF70C"/>
<stop offset="1" stop-color="#AFFA00"/>
</linearGradient>
<linearGradient id="paint16_linear_76_909" x1="3250" y1="1256.5" x2="1.00008" y2="1256.5" gradientUnits="userSpaceOnUse">
<stop stop-color="#0CF70C"/>
<stop offset="1" stop-color="#AFFA00"/>
</linearGradient>
<linearGradient id="paint17_linear_76_909" x1="3250" y1="1256.5" x2="1.00008" y2="1256.5" gradientUnits="userSpaceOnUse">
<stop stop-color="#0CF70C"/>
<stop offset="1" stop-color="#AFFA00"/>
</linearGradient>
<linearGradient id="paint18_linear_76_909" x1="3250" y1="1256.5" x2="1.00008" y2="1256.5" gradientUnits="userSpaceOnUse">
<stop stop-color="#0CF70C"/>
<stop offset="1" stop-color="#AFFA00"/>
</linearGradient>
<linearGradient id="paint19_linear_76_909" x1="3250" y1="1256.5" x2="1.00008" y2="1256.5" gradientUnits="userSpaceOnUse">
<stop stop-color="#0CF70C"/>
<stop offset="1" stop-color="#AFFA00"/>
</linearGradient>
<linearGradient id="paint20_linear_76_909" x1="3250" y1="1256.5" x2="1.00008" y2="1256.5" gradientUnits="userSpaceOnUse">
<stop stop-color="#0CF70C"/>
<stop offset="1" stop-color="#AFFA00"/>
</linearGradient>
<linearGradient id="paint21_linear_76_909" x1="3250" y1="1256.5" x2="1.00008" y2="1256.5" gradientUnits="userSpaceOnUse">
<stop stop-color="#0CF70C"/>
<stop offset="1" stop-color="#AFFA00"/>
</linearGradient>
<linearGradient id="paint22_linear_76_909" x1="3250" y1="1256.5" x2="1.00008" y2="1256.5" gradientUnits="userSpaceOnUse">
<stop stop-color="#0CF70C"/>
<stop offset="1" stop-color="#AFFA00"/>
</linearGradient>
<linearGradient id="paint23_linear_76_909" x1="3250" y1="1256.5" x2="1.00008" y2="1256.5" gradientUnits="userSpaceOnUse">
<stop stop-color="#0CF70C"/>
<stop offset="1" stop-color="#AFFA00"/>
</linearGradient>
<linearGradient id="paint24_linear_76_909" x1="3250" y1="1256.5" x2="1.00008" y2="1256.5" gradientUnits="userSpaceOnUse">
<stop stop-color="#0CF70C"/>
<stop offset="1" stop-color="#AFFA00"/>
</linearGradient>
<linearGradient id="paint25_linear_76_909" x1="3250" y1="1256.5" x2="1.00008" y2="1256.5" gradientUnits="userSpaceOnUse">
<stop stop-color="#0CF70C"/>
<stop offset="1" stop-color="#AFFA00"/>
</linearGradient>
<linearGradient id="paint26_linear_76_909" x1="3250" y1="1256.5" x2="1.00008" y2="1256.5" gradientUnits="userSpaceOnUse">
<stop stop-color="#0CF70C"/>
<stop offset="1" stop-color="#AFFA00"/>
</linearGradient>
<linearGradient id="paint27_linear_76_909" x1="3250" y1="1256.5" x2="1.00008" y2="1256.5" gradientUnits="userSpaceOnUse">
<stop stop-color="#0CF70C"/>
<stop offset="1" stop-color="#AFFA00"/>
</linearGradient>
<linearGradient id="paint28_linear_76_909" x1="3250" y1="1256.5" x2="1.00008" y2="1256.5" gradientUnits="userSpaceOnUse">
<stop stop-color="#0CF70C"/>
<stop offset="1" stop-color="#AFFA00"/>
</linearGradient>
<linearGradient id="paint29_linear_76_909" x1="3250" y1="1256.5" x2="1.00008" y2="1256.5" gradientUnits="userSpaceOnUse">
<stop stop-color="#0CF70C"/>
<stop offset="1" stop-color="#AFFA00"/>
</linearGradient>
<linearGradient id="paint30_linear_76_909" x1="3250" y1="1256.5" x2="1.00008" y2="1256.5" gradientUnits="userSpaceOnUse">
<stop stop-color="#0CF70C"/>
<stop offset="1" stop-color="#AFFA00"/>
</linearGradient>
<linearGradient id="paint31_linear_76_909" x1="3250" y1="1256.5" x2="1.00008" y2="1256.5" gradientUnits="userSpaceOnUse">
<stop stop-color="#0CF70C"/>
<stop offset="1" stop-color="#AFFA00"/>
</linearGradient>
<linearGradient id="paint32_linear_76_909" x1="3250" y1="1256.5" x2="1.00008" y2="1256.5" gradientUnits="userSpaceOnUse">
<stop stop-color="#0CF70C"/>
<stop offset="1" stop-color="#AFFA00"/>
</linearGradient>
<linearGradient id="paint33_linear_76_909" x1="3250" y1="1256.5" x2="1.00008" y2="1256.5" gradientUnits="userSpaceOnUse">
<stop stop-color="#0CF70C"/>
<stop offset="1" stop-color="#AFFA00"/>
</linearGradient>
<linearGradient id="paint34_linear_76_909" x1="3250" y1="1256.5" x2="1.00008" y2="1256.5" gradientUnits="userSpaceOnUse">
<stop stop-color="#0CF70C"/>
<stop offset="1" stop-color="#AFFA00"/>
</linearGradient>
<linearGradient id="paint35_linear_76_909" x1="3250" y1="1256.5" x2="1.00008" y2="1256.5" gradientUnits="userSpaceOnUse">
<stop stop-color="#0CF70C"/>
<stop offset="1" stop-color="#AFFA00"/>
</linearGradient>
<linearGradient id="paint36_linear_76_909" x1="3250" y1="1256.5" x2="1.00008" y2="1256.5" gradientUnits="userSpaceOnUse">
<stop stop-color="#0CF70C"/>
<stop offset="1" stop-color="#AFFA00"/>
</linearGradient>
<linearGradient id="paint37_linear_76_909" x1="3250" y1="1256.5" x2="1.00008" y2="1256.5" gradientUnits="userSpaceOnUse">
<stop stop-color="#0CF70C"/>
<stop offset="1" stop-color="#AFFA00"/>
</linearGradient>
<linearGradient id="paint38_linear_76_909" x1="3250" y1="1256.5" x2="1.00008" y2="1256.5" gradientUnits="userSpaceOnUse">
<stop stop-color="#0CF70C"/>
<stop offset="1" stop-color="#AFFA00"/>
</linearGradient>
<linearGradient id="paint39_linear_76_909" x1="3250" y1="1256.5" x2="1.00008" y2="1256.5" gradientUnits="userSpaceOnUse">
<stop stop-color="#0CF70C"/>
<stop offset="1" stop-color="#AFFA00"/>
</linearGradient>
</defs>
</svg>
